HIERARCHY
ROOT Hips
{
    OFFSET 0.000000 0.000000 0.000000
    CHANNELS 6 Xposition Yposition Zposition Zrotation Xrotation Yrotation
    JOINT Spine
    {
        OFFSET -0.000000 7.246840 0.000000
        CHANNELS 3 Zrotation Xrotation Yrotation
        JOINT Spine1
        {
            OFFSET -0.000000 20.289354 0.000000
            CHANNELS 3 Zrotation Xrotation Yrotation
            JOINT Neck
            {
                OFFSET -0.000000 20.206032 1.836912
                CHANNELS 3 Zrotation Xrotation Yrotation
                JOINT Head
                {
                    OFFSET -0.000000 12.372654 -1.767522
                    CHANNELS 3 Zrotation Xrotation Yrotation
                    End Site
                    {
                        OFFSET -0.000000 22.094025 0.000000
                    }
                }
            }
            JOINT LeftShoulder
            {
                OFFSET 3.465871 17.201674 -0.568930
                CHANNELS 3 Zrotation Xrotation Yrotation
                JOINT LeftArm
                {
                    OFFSET 14.070313 0.000000 0.000000
                    CHANNELS 3 Zrotation Xrotation Yrotation
                    JOINT LeftForeArm
                    {
                        OFFSET 26.549477 0.000000 0.000000
                        CHANNELS 3 Zrotation Xrotation Yrotation
                        JOINT LeftHand
                        {
                            OFFSET 18.880413 0.000000 0.000000
                            CHANNELS 3 Zrotation Xrotation Yrotation
                            End Site
                            {
                                OFFSET 13.256415 0.000000 0.000000
                            }
                        }
                    }
                }
            }
            JOINT RightShoulder
            {
                OFFSET -3.526370 17.201674 -0.568930
                CHANNELS 3 Zrotation Xrotation Yrotation
                JOINT RightArm
                {
                    OFFSET -14.070313 0.000000 0.000000
                    CHANNELS 3 Zrotation Xrotation Yrotation
                    JOINT RightForeArm
                    {
                        OFFSET -26.549477 0.000000 0.000000
                        CHANNELS 3 Zrotation Xrotation Yrotation
                        JOINT RightHand
                        {
                            OFFSET -18.880413 0.000000 0.000000
                            CHANNELS 3 Zrotation Xrotation Yrotation
                            End Site
                            {
                                OFFSET -13.256415 0.000000 0.000000
                            }
                        }
                    }
                }
            }
        }
    }
    JOINT LeftUpLeg
    {
        OFFSET 8.837609 0.000000 0.000000
        CHANNELS 3 Zrotation Xrotation Yrotation
        JOINT LeftLeg
        {
            OFFSET -0.000000 -41.345005 0.000000
            CHANNELS 3 Zrotation Xrotation Yrotation
            JOINT LeftFoot
            {
                OFFSET -0.000000 -35.500874 0.000000
                CHANNELS 3 Zrotation Xrotation Yrotation
                JOINT LeftToeBase
                {
                    OFFSET -0.000000 -5.744446 13.256415
                    CHANNELS 3 Zrotation Xrotation Yrotation
                    End Site
                    {
                        OFFSET -0.000000 0.000000 3.535044
                    }
                }
            }
        }
    }
    JOINT RightUpLeg
    {
        OFFSET -8.837609 0.000000 0.000000
        CHANNELS 3 Zrotation Xrotation Yrotation
        JOINT RightLeg
        {
            OFFSET -0.000000 -41.345005 0.000000
            CHANNELS 3 Zrotation Xrotation Yrotation
            JOINT RightFoot
            {
                OFFSET -0.000000 -35.500874 0.000000
                CHANNELS 3 Zrotation Xrotation Yrotation
                JOINT RightToeBase
                {
                    OFFSET -0.000000 -5.744446 13.256415
                    CHANNELS 3 Zrotation Xrotation Yrotation
                    End Site
                    {
                        OFFSET -0.000000 0.000000 3.535044
                    }
                }
            }
        }
    }
}
MOTION
Frames:    11
Frame Time:    0.010000
2.472771    82.747711    1.128455    2.566357    0.155675    -0.293018    -3.583900    -10.244018    -0.442488    0.979914    0.393932    -0.124758    1.956794    31.875372    -2.157125    2.088146    -10.976676    -1.449002    19.181007    1.172247    6.826169    -30.761057    6.775891    -12.527402    6.610499    -8.906118    -9.618888    -28.328741    -7.927020    -1.715281    -14.491225    1.986294    13.172714    22.176394    7.296510    11.144670    -5.082763    -5.665181    3.792252    12.661674    -3.816993    15.109529    -4.293631    4.036609    1.710102    -0.990715    3.417166    -4.359811    5.658134    -4.339252    0.399094    -1.056019    -3.007806    1.505937    -5.369841    1.145063    1.142328    3.851381    2.527902    5.665796    2.076938    -5.953052    -5.896111    -0.667950    -1.474888    1.217322    
2.476306    82.748978    1.135913    2.553681    0.165711    -0.324990    -3.579695    -10.255650    -0.431033    0.953542    0.375266    -0.113423    1.919742    31.864885    -2.165262    2.165481    -10.960525    -1.445501    19.191513    1.123627    6.807182    -30.743814    6.897534    -12.459826    6.596404    -8.987631    -9.596893    -28.400072    -8.021000    -1.671598    -14.506655    1.994702    13.168616    22.150541    7.277743    11.159266    -5.177982    -5.524462    3.717670    13.202080    -3.599732    15.142817    -4.281926    4.049745    1.719594    -1.014511    3.389712    -4.264771    5.623010    -4.333733    0.330963    -1.068687    -3.021350    1.524132    -5.361301    1.135920    1.135117    3.850384    2.526302    5.699708    2.064118    -5.942642    -5.893262    -0.665216    -1.500708    1.212688    
2.480979    82.750023    1.144421    2.541857    0.181822    -0.353757    -3.576816    -10.273517    -0.422993    0.930319    0.352327    -0.104513    1.916491    31.846184    -2.177963    2.179477    -10.929056    -1.456868    19.200312    1.111296    6.806560    -30.758675    6.906051    -12.426118    6.589233    -9.013430    -9.559761    -28.470846    -8.038691    -1.710676    -14.512893    1.989880    13.169649    22.119738    7.264854    11.157566    -5.146883    -5.493887    3.729817    13.317823    -3.556804    15.119050    -4.280099    4.061265    1.754674    -0.989910    3.340883    -4.327535    5.264417    -4.522787    0.357611    -1.016181    -2.676383    1.446100    -5.356189    1.124990    1.163371    3.863254    2.510178    5.656218    2.094909    -5.927669    -5.851908    -0.656897    -1.493722    1.197431    
2.483279    82.750412    1.153331    2.532179    0.193638    -0.369791    -3.590500    -10.288096    -0.424201    0.922285    0.335832    -0.104221    1.890685    31.806561    -2.192522    2.212551    -10.873001    -1.470055    19.191023    1.108117    6.803946    -30.755619    6.881358    -12.375323    6.639340    -9.388367    -9.474075    -28.528027    -8.333612    -2.032173    -14.526987    1.969489    13.167065    22.105944    7.247715    11.162548    -5.112329    -5.438030    3.738758    13.401033    -3.494513    15.084087    -4.261546    4.076362    1.753990    -1.011162    3.299216    -4.339497    5.649116    -4.297004    0.404584    -1.027577    -3.021437    1.465506    -5.354005    1.122298    1.151238    3.867030    2.499664    5.680396    2.084485    -5.913787    -5.853055    -0.666797    -1.493315    1.215471    
2.486739    82.751602    1.163672    2.517891    0.204105    -0.381561    -3.600293    -10.308682    -0.423777    0.916887    0.332361    -0.101825    1.899084    31.770849    -2.220287    2.195151    -10.845907    -1.502927    19.179022    1.134709    6.828256    -30.773327    6.756731    -12.390131    6.647521    -9.339067    -9.459803    -28.593063    -8.293086    -1.992647    -14.548441    1.950095    13.159998    22.085670    7.309215    11.186694    -4.994591    -5.532884    3.733987    13.143012    -3.631739    15.054132    -4.254496    4.075269    1.751034    -1.013229    3.295648    -4.287479    5.287323    -4.513098    0.338453    -1.038856    -2.666767    1.478277    -5.349166    1.124378    1.148827    3.880945    2.481620    5.679566    2.071248    -5.895210    -5.832012    -0.651540    -1.500239    1.187753    
2.488135    82.753021    1.173439    2.503626    0.214784    -0.383582    -3.615954    -10.324339    -0.426673    0.907394    0.316374    -0.102506    1.909812    31.756550    -2.235759    2.201675    -10.841289    -1.516213    19.180696    1.149049    6.833184    -30.794888    6.645104    -12.384381    6.653170    -9.288040    -9.457051    -28.551392    -8.253584    -1.948057    -14.562642    1.943614    13.158009    22.098377    7.312484    11.191339    -5.030791    -5.665337    3.699657    13.215230    -3.754551    15.059853    -4.240232    4.085467    1.754428    -1.011483    3.265192    -4.283850    5.623988    -4.298483    0.347885    -1.052654    -3.016866    1.501224    -5.340490    1.130451    1.141829    3.881320    2.465171    5.711930    2.111747    -5.908607    -5.867592    -0.675567    -1.482339    1.231305    
2.489605    82.753738    1.185968    2.491571    0.221620    -0.382914    -3.633049    -10.343171    -0.433604    0.898531    0.311982    -0.107600    1.946474    31.721664    -2.249789    2.161937    -10.822634    -1.535583    19.174871    1.196705    6.871285    -30.802839    6.510069    -12.444977    6.690734    -9.138803    -9.405748    -28.580616    -8.124388    -1.864551    -14.566004    1.920237    13.160831    22.118114    7.300774    11.184800    -5.027253    -5.705276    3.666727    13.158286    -3.802089    15.074203    -4.228306    4.092896    1.744176    -1.011971    3.257780    -4.328029    5.602830    -4.285477    0.410572    -1.031791    -3.063273    1.471906    -5.340622    1.148984    1.144340    3.903617    2.428760    5.702466    2.099621    -5.883030    -5.866170    -0.686033    -1.495639    1.250565    
2.492471    82.754532    1.198524    2.477409    0.226937    -0.375303    -3.650607    -10.355718    -0.436991    0.891210    0.298505    -0.108935    1.998593    31.707117    -2.287287    2.119112    -10.830724    -1.576781    19.178875    1.205750    6.883424    -30.783888    6.520228    -12.465578    6.682162    -9.063118    -9.378902    -28.427013    -8.055068    -1.857816    -14.564237    1.931921    13.157920    22.140467    7.245333    11.172132    -5.032581    -5.775908    3.632977    13.053975    -3.885029    15.101402    -4.220171    4.111399    1.740337    -1.013814    3.228105    -4.268222    5.681448    -4.308958    0.341828    -1.046935    -2.995499    1.492866    -5.331907    1.165244    1.131468    3.908093    2.402242    5.694590    2.111865    -5.878774    -5.845935    -0.685440    -1.472144    1.249157    
2.494383    82.754295    1.213781    2.463772    0.223266    -0.365773    -3.665042    -10.369871    -0.439676    0.880394    0.298770    -0.109859    1.977897    31.691990    -2.296842    2.179263    -10.838299    -1.575940    19.182825    1.226545    6.890727    -30.766479    6.482860    -12.513652    6.664656    -8.974457    -9.299701    -28.239740    -7.967171    -1.890831    -14.559522    1.928166    13.154705    22.182507    7.144395    11.160439    -5.095778    -5.969718    3.583344    12.965068    -4.083616    15.169807    -4.202427    4.134780    1.728132    -1.026012    3.211819    -4.307824    5.643804    -4.288062    0.393828    -1.040833    -3.033392    1.484522    -5.331015    1.197101    1.125590    3.929018    2.369549    5.693369    2.121159    -5.871739    -5.846209    -0.696645    -1.468138    1.269520    
2.497523    82.752930    1.230093    2.446292    0.220568    -0.359641    -3.682860    -10.382548    -0.442161    0.889668    0.294801    -0.109653    1.983481    31.671900    -2.320989    2.178683    -10.845654    -1.600652    19.179218    1.242685    6.898453    -30.735777    6.508204    -12.549909    6.654317    -8.923375    -9.231136    -28.078709    -7.903203    -1.972966    -14.549840    1.943427    13.147557    22.196409    7.038525    11.152061    -5.116448    -5.951203    3.568966    12.903389    -4.077524    15.133232    -4.193636    4.165428    1.734607    -1.017697    3.175854    -4.303214    5.651204    -4.292071    0.372609    -1.050042    -3.023729    1.497564    -5.326057    1.230674    1.144498    3.930271    2.347934    5.714951    2.140337    -5.884619    -5.891305    -0.693941    -1.482940    1.264801    
2.501469    82.751144    1.246505    2.433243    0.217237    -0.347674    -3.698814    -10.407944    -0.448020    0.897052    0.315617    -0.114097    1.955081    31.641762    -2.332516    2.213297    -10.851225    -1.609354    19.191879    1.196588    6.883550    -30.725456    6.579493    -12.516216    6.648742    -8.926081    -9.185801    -27.939062    -7.890330    -2.058955    -14.543730    1.925768    13.145623    22.202175    6.977190    11.149349    -5.132346    -5.900858    3.531189    12.925355    -4.031063    15.083023    -4.184302    4.194597    1.726774    -1.021999    3.152653    -4.277300    5.655956    -4.299941    0.354611    -1.041627    -3.026958    1.485594    -5.327189    1.261828    1.138569    3.965917    2.304591    5.692070    2.137658    -5.863464    -5.857264    -0.692610    -1.465175    1.262127    
